<svg viewBox="0 0 138 45" fill="none" xmlns="http://www.w3.org/2000/svg">
<path
    d="M0 15C0 6.71573 6.71573 0 15 0H108C124.569 0 138 13.4315 138 30C138 38.2843 131.284 45 123 45H30C13.4315 45 0 31.5685 0 15Z"
    fill="#22252A"
  />
<path
    d="M36.172 27.098C35.528 27.098 34.9493 26.986 34.436 26.762C33.932 26.5287 33.5353 26.2113 33.246 25.81C32.9567 25.3993 32.8073 24.928 32.798 24.396H34.156C34.2027 24.8533 34.3893 25.2407 34.716 25.558C35.052 25.866 35.5373 26.02 36.172 26.02C36.7787 26.02 37.2547 25.8707 37.6 25.572C37.9547 25.264 38.132 24.872 38.132 24.396C38.132 24.0227 38.0293 23.7193 37.824 23.486C37.6187 23.2527 37.362 23.0753 37.054 22.954C36.746 22.8327 36.3307 22.702 35.808 22.562C35.164 22.394 34.646 22.226 34.254 22.058C33.8713 21.89 33.54 21.6287 33.26 21.274C32.9893 20.91 32.854 20.4247 32.854 19.818C32.854 19.286 32.9893 18.8147 33.26 18.404C33.5307 17.9933 33.9087 17.676 34.394 17.452C34.8887 17.228 35.4533 17.116 36.088 17.116C37.0027 17.116 37.7493 17.3447 38.328 17.802C38.916 18.2593 39.2473 18.866 39.322 19.622H37.922C37.8753 19.2487 37.6793 18.922 37.334 18.642C36.9887 18.3527 36.5313 18.208 35.962 18.208C35.43 18.208 34.996 18.348 34.66 18.628C34.324 18.8987 34.156 19.2813 34.156 19.776C34.156 20.1307 34.254 20.42 34.45 20.644C34.6553 20.868 34.9027 21.0407 35.192 21.162C35.4907 21.274 35.906 21.4047 36.438 21.554C37.082 21.7313 37.6 21.9087 37.992 22.086C38.384 22.254 38.72 22.52 39 22.884C39.28 23.2387 39.42 23.724 39.42 24.34C39.42 24.816 39.294 25.264 39.042 25.684C38.79 26.104 38.4167 26.4447 37.922 26.706C37.4273 26.9673 36.844 27.098 36.172 27.098ZM48.2948 22.87C48.2948 23.1127 48.2808 23.3693 48.2528 23.64H42.1208C42.1675 24.396 42.4241 24.9887 42.8908 25.418C43.3668 25.838 43.9408 26.048 44.6128 26.048C45.1635 26.048 45.6208 25.922 45.9848 25.67C46.3581 25.4087 46.6195 25.0633 46.7688 24.634H48.1408C47.9355 25.3713 47.5248 25.9733 46.9088 26.44C46.2928 26.8973 45.5275 27.126 44.6128 27.126C43.8848 27.126 43.2315 26.9627 42.6528 26.636C42.0835 26.3093 41.6355 25.8473 41.3088 25.25C40.9821 24.6433 40.8188 23.9433 40.8188 23.15C40.8188 22.3567 40.9775 21.6613 41.2948 21.064C41.6121 20.4667 42.0555 20.0093 42.6248 19.692C43.2035 19.3653 43.8661 19.202 44.6128 19.202C45.3408 19.202 45.9848 19.3607 46.5448 19.678C47.1048 19.9953 47.5341 20.434 47.8328 20.994C48.1408 21.5447 48.2948 22.17 48.2948 22.87ZM46.9788 22.604C46.9788 22.1187 46.8715 21.7033 46.6568 21.358C46.4421 21.0033 46.1481 20.7373 45.7748 20.56C45.4108 20.3733 45.0048 20.28 44.5568 20.28C43.9128 20.28 43.3621 20.4853 42.9048 20.896C42.4568 21.3067 42.2001 21.876 42.1348 22.604H46.9788ZM56.9764 22.87C56.9764 23.1127 56.9624 23.3693 56.9344 23.64H50.8024C50.8491 24.396 51.1058 24.9887 51.5724 25.418C52.0484 25.838 52.6224 26.048 53.2944 26.048C53.8451 26.048 54.3024 25.922 54.6664 25.67C55.0398 25.4087 55.3011 25.0633 55.4504 24.634H56.8224C56.6171 25.3713 56.2064 25.9733 55.5904 26.44C54.9744 26.8973 54.2091 27.126 53.2944 27.126C52.5664 27.126 51.9131 26.9627 51.3344 26.636C50.7651 26.3093 50.3171 25.8473 49.9904 25.25C49.6638 24.6433 49.5004 23.9433 49.5004 23.15C49.5004 22.3567 49.6591 21.6613 49.9764 21.064C50.2938 20.4667 50.7371 20.0093 51.3064 19.692C51.8851 19.3653 52.5478 19.202 53.2944 19.202C54.0224 19.202 54.6664 19.3607 55.2264 19.678C55.7864 19.9953 56.2158 20.434 56.5144 20.994C56.8224 21.5447 56.9764 22.17 56.9764 22.87ZM55.6604 22.604C55.6604 22.1187 55.5531 21.7033 55.3384 21.358C55.1238 21.0033 54.8298 20.7373 54.4564 20.56C54.0924 20.3733 53.6864 20.28 53.2384 20.28C52.5944 20.28 52.0438 20.4853 51.5864 20.896C51.1384 21.3067 50.8818 21.876 50.8164 22.604H55.6604ZM63.6645 20.574C63.8885 20.1353 64.2058 19.7947 64.6165 19.552C65.0365 19.3093 65.5452 19.188 66.1425 19.188V20.504H65.8065C64.3785 20.504 63.6645 21.2787 63.6645 22.828V27H62.3905V19.328H63.6645V20.574ZM74.6132 22.87C74.6132 23.1127 74.5992 23.3693 74.5712 23.64H68.4392C68.4858 24.396 68.7425 24.9887 69.2092 25.418C69.6852 25.838 70.2592 26.048 70.9312 26.048C71.4818 26.048 71.9392 25.922 72.3032 25.67C72.6765 25.4087 72.9378 25.0633 73.0872 24.634H74.4592C74.2538 25.3713 73.8432 25.9733 73.2272 26.44C72.6112 26.8973 71.8458 27.126 70.9312 27.126C70.2032 27.126 69.5498 26.9627 68.9712 26.636C68.4018 26.3093 67.9538 25.8473 67.6272 25.25C67.3005 24.6433 67.1372 23.9433 67.1372 23.15C67.1372 22.3567 67.2958 21.6613 67.6132 21.064C67.9305 20.4667 68.3738 20.0093 68.9432 19.692C69.5218 19.3653 70.1845 19.202 70.9312 19.202C71.6592 19.202 72.3032 19.3607 72.8632 19.678C73.4232 19.9953 73.8525 20.434 74.1512 20.994C74.4592 21.5447 74.6132 22.17 74.6132 22.87ZM73.2972 22.604C73.2972 22.1187 73.1898 21.7033 72.9752 21.358C72.7605 21.0033 72.4665 20.7373 72.0932 20.56C71.7292 20.3733 71.3232 20.28 70.8752 20.28C70.2312 20.28 69.6805 20.4853 69.2232 20.896C68.7752 21.3067 68.5185 21.876 68.4532 22.604H73.2972ZM75.8188 23.15C75.8188 22.3567 75.9775 21.666 76.2948 21.078C76.6121 20.4807 77.0508 20.0187 77.6108 19.692C78.1801 19.3653 78.8288 19.202 79.5568 19.202C80.4995 19.202 81.2741 19.4307 81.8808 19.888C82.4968 20.3453 82.9028 20.98 83.0988 21.792H81.7268C81.5961 21.3253 81.3395 20.9567 80.9568 20.686C80.5835 20.4153 80.1168 20.28 79.5568 20.28C78.8288 20.28 78.2408 20.532 77.7928 21.036C77.3448 21.5307 77.1208 22.2353 77.1208 23.15C77.1208 24.074 77.3448 24.788 77.7928 25.292C78.2408 25.796 78.8288 26.048 79.5568 26.048C80.1168 26.048 80.5835 25.9173 80.9568 25.656C81.3301 25.3947 81.5868 25.0213 81.7268 24.536H83.0988C82.8935 25.32 82.4828 25.95 81.8668 26.426C81.2508 26.8927 80.4808 27.126 79.5568 27.126C78.8288 27.126 78.1801 26.9627 77.6108 26.636C77.0508 26.3093 76.6121 25.8473 76.2948 25.25C75.9775 24.6527 75.8188 23.9527 75.8188 23.15ZM85.4567 18.082C85.214 18.082 85.0087 17.998 84.8407 17.83C84.6727 17.662 84.5887 17.4567 84.5887 17.214C84.5887 16.9713 84.6727 16.766 84.8407 16.598C85.0087 16.43 85.214 16.346 85.4567 16.346C85.69 16.346 85.886 16.43 86.0447 16.598C86.2127 16.766 86.2967 16.9713 86.2967 17.214C86.2967 17.4567 86.2127 17.662 86.0447 17.83C85.886 17.998 85.69 18.082 85.4567 18.082ZM86.0727 19.328V27H84.7987V19.328H86.0727ZM89.518 20.742C89.77 20.3033 90.1433 19.9393 90.638 19.65C91.142 19.3513 91.7253 19.202 92.388 19.202C93.0693 19.202 93.6853 19.3653 94.236 19.692C94.796 20.0187 95.2347 20.4807 95.552 21.078C95.8693 21.666 96.028 22.352 96.028 23.136C96.028 23.9107 95.8693 24.6013 95.552 25.208C95.2347 25.8147 94.796 26.286 94.236 26.622C93.6853 26.958 93.0693 27.126 92.388 27.126C91.7347 27.126 91.156 26.9813 90.652 26.692C90.1573 26.3933 89.7793 26.0247 89.518 25.586V30.64H88.244V19.328H89.518V20.742ZM94.726 23.136C94.726 22.5573 94.6093 22.0533 94.376 21.624C94.1427 21.1947 93.8253 20.868 93.424 20.644C93.032 20.42 92.598 20.308 92.122 20.308C91.6553 20.308 91.2213 20.4247 90.82 20.658C90.428 20.882 90.1107 21.2133 89.868 21.652C89.6347 22.0813 89.518 22.5807 89.518 23.15C89.518 23.7287 89.6347 24.2373 89.868 24.676C90.1107 25.1053 90.428 25.4367 90.82 25.67C91.2213 25.894 91.6553 26.006 92.122 26.006C92.598 26.006 93.032 25.894 93.424 25.67C93.8253 25.4367 94.1427 25.1053 94.376 24.676C94.6093 24.2373 94.726 23.724 94.726 23.136ZM104.705 22.87C104.705 23.1127 104.691 23.3693 104.663 23.64H98.531C98.5776 24.396 98.8343 24.9887 99.301 25.418C99.777 25.838 100.351 26.048 101.023 26.048C101.574 26.048 102.031 25.922 102.395 25.67C102.768 25.4087 103.03 25.0633 103.179 24.634H104.551C104.346 25.3713 103.935 25.9733 103.319 26.44C102.703 26.8973 101.938 27.126 101.023 27.126C100.295 27.126 99.6416 26.9627 99.063 26.636C98.4936 26.3093 98.0456 25.8473 97.719 25.25C97.3923 24.6433 97.229 23.9433 97.229 23.15C97.229 22.3567 97.3876 21.6613 97.705 21.064C98.0223 20.4667 98.4656 20.0093 99.035 19.692C99.6136 19.3653 100.276 19.202 101.023 19.202C101.751 19.202 102.395 19.3607 102.955 19.678C103.515 19.9953 103.944 20.434 104.243 20.994C104.551 21.5447 104.705 22.17 104.705 22.87ZM103.389 22.604C103.389 22.1187 103.282 21.7033 103.067 21.358C102.852 21.0033 102.558 20.7373 102.185 20.56C101.821 20.3733 101.415 20.28 100.967 20.28C100.323 20.28 99.7723 20.4853 99.315 20.896C98.867 21.3067 98.6103 21.876 98.545 22.604H103.389Z"
    fill="#FAFAFA"
  />
</svg>
