<svg width="357" height="344" viewBox="0 0 357 344" fill="none" xmlns="http://www.w3.org/2000/svg">
<rect width="357" height="344" rx="8" fill="#8BAA36"/>
<path d="M203.381 162.857V153.696C203.381 152.083 202.741 150.535 201.602 149.392C200.463 148.25 198.917 147.606 197.304 147.601L188.143 147.573M203.381 181.143V190.286C203.381 191.902 202.739 193.453 201.596 194.596C200.453 195.739 198.902 196.381 197.286 196.381H188.143M169.857 147.573L160.696 147.604C159.083 147.609 157.537 148.253 156.398 149.395C155.259 150.538 154.619 152.086 154.619 153.699V162.857M169.857 196.381H160.714C159.098 196.381 157.547 195.739 156.404 194.596C155.261 193.453 154.619 191.902 154.619 190.286V181.143" stroke="#FAFAFA" stroke-linecap="round" stroke-linejoin="round"/>
<path d="M179 177.5C180.25 177.5 181.313 177.063 182.188 176.188C183.063 175.313 183.5 174.25 183.5 173C183.5 171.75 183.063 170.687 182.188 169.812C181.313 168.937 180.25 168.5 179 168.5C177.75 168.5 176.687 168.937 175.812 169.812C174.937 170.687 174.5 171.75 174.5 173C174.5 174.25 174.937 175.313 175.812 176.188C176.687 177.063 177.75 177.5 179 177.5ZM171 181C170.45 181 169.979 180.804 169.588 180.413C169.196 180.021 169 179.55 169 179V167C169 166.45 169.196 165.979 169.588 165.588C169.979 165.196 170.45 165 171 165H174.15L176 163H182L183.85 165H187C187.55 165 188.021 165.196 188.413 165.588C188.804 165.979 189 166.45 189 167V179C189 179.55 188.804 180.021 188.413 180.413C188.021 180.804 187.55 181 187 181H171Z" fill="#FAFAFA"/>
</svg>
